<svg width="18" height="16" viewBox="0 0 18 16" fill="none" xmlns="http://www.w3.org/2000/svg">
<g clip-path="url(#clip0_4_991)">
<path d="M15.1353 1.22667H13.6953V0.48C13.6953 0.337777 13.6509 0.222221 13.562 0.133333C13.4731 0.0444441 13.3576 0 13.2153 0C13.0731 0 12.9576 0.0444441 12.8687 0.133333C12.7798 0.222221 12.7353 0.337777 12.7353 0.48V1.22667H5.69533V0.48C5.69533 0.337777 5.65089 0.222221 5.562 0.133333C5.47311 0.0444441 5.35755 0 5.21533 0C5.07311 0 4.95755 0.0444441 4.86867 0.133333C4.77978 0.222221 4.73533 0.337777 4.73533 0.48V1.22667H3.29533C2.72644 1.22667 2.23755 1.43111 1.82867 1.84C1.41978 2.24889 1.21533 2.73778 1.21533 3.30667V13.92C1.21533 14.4889 1.41978 14.9778 1.82867 15.3867C2.23755 15.7956 2.72644 16 3.29533 16H15.1353C15.7042 16 16.1931 15.7956 16.602 15.3867C17.0109 14.9778 17.2153 14.4889 17.2153 13.92V3.30667C17.2153 2.73778 17.0109 2.24889 16.602 1.84C16.1931 1.43111 15.7042 1.22667 15.1353 1.22667ZM3.29533 2.24H4.73533V2.77333C4.73533 2.88 4.77978 2.98667 4.86867 3.09333C4.95755 3.2 5.07311 3.25333 5.21533 3.25333C5.35755 3.25333 5.47311 3.2 5.562 3.09333C5.65089 2.98667 5.69533 2.88 5.69533 2.77333V2.24H12.7353V2.77333C12.7353 2.88 12.7798 2.98667 12.8687 3.09333C12.9576 3.2 13.0731 3.25333 13.2153 3.25333C13.3576 3.25333 13.4731 3.2 13.562 3.09333C13.6509 2.98667 13.6953 2.88 13.6953 2.77333V2.24H15.1353C15.4553 2.24 15.7131 2.34667 15.9087 2.56C16.1042 2.77333 16.202 3.02222 16.202 3.30667V4.48H2.22867V3.30667C2.22867 3.02222 2.32644 2.77333 2.522 2.56C2.71755 2.34667 2.97533 2.24 3.29533 2.24ZM15.1353 14.9867H3.29533C2.97533 14.9867 2.71755 14.8889 2.522 14.6933C2.32644 14.4978 2.22867 14.24 2.22867 13.92V5.49333H16.202V13.92C16.202 14.24 16.1042 14.4978 15.9087 14.6933C15.7131 14.8889 15.4553 14.9867 15.1353 14.9867Z" fill="#BACCE1"/>
</g>
<defs>
<clipPath id="clip0_4_991">
<rect width="16.53" height="16" fill="white" transform="matrix(1 0 0 -1 0.950195 16)"/>
</clipPath>
</defs>
</svg>
